HIERARCHY
ROOT hips
{
  OFFSET 0 10.6860622 2.3727825e-15
  CHANNELS 6 Xposition Yposition Zposition Yrotation Xrotation Zrotation
  JOINT leftUpperLeg
  {
    OFFSET 0.6642549969 -0.9402397400000004 0
    CHANNELS 3 Yrotation Xrotation Zrotation
    JOINT leftLowerLeg
    {
      OFFSET 0 -3.997221335632195 0
      CHANNELS 3 Yrotation Xrotation Zrotation
      JOINT leftFoot
      {
        OFFSET -0.13777839790000004 -4.6145792000000005 -0.22186036399999998
        CHANNELS 3 Yrotation Xrotation Zrotation
        JOINT leftToes
        {
          OFFSET -0.03777410834999995 -0.9130806927000008 0.85230013
          CHANNELS 3 Yrotation Xrotation Zrotation
          End Site
          {
            OFFSET -0.03777410834999995 -0.9130806927000008 0.85230013
          }
        }
      }
    }
  }
  JOINT rightUpperLeg
  {
    OFFSET -0.6642778626 -0.9402397400000004 0
    CHANNELS 3 Yrotation Xrotation Zrotation
    JOINT rightLowerLeg
    {
      OFFSET 0 -3.997221452859387 0
      CHANNELS 3 Yrotation Xrotation Zrotation
      JOINT rightFoot
      {
        OFFSET 0.1377926176 -4.6145792000000005 -0.22185782299999995
        CHANNELS 3 Yrotation Xrotation Zrotation
        JOINT rightToes
        {
          OFFSET 0.037780746850000047 -0.9130806927000008 0.85230167
          CHANNELS 3 Yrotation Xrotation Zrotation
          End Site
          {
            OFFSET 0.037780746850000047 -0.9130806927000008 0.85230167
          }
        }
      }
    }
  }
  JOINT spine
  {
    OFFSET 0 0.13988381660000015 0
    CHANNELS 3 Yrotation Xrotation Zrotation
    JOINT chest
    {
      OFFSET 0 0.6191039003973773 0
      CHANNELS 3 Yrotation Xrotation Zrotation
      JOINT upperChest
      {
        OFFSET 0 0.9855186130586943 0
        CHANNELS 3 Yrotation Xrotation Zrotation
        JOINT leftShoulder
        {
          OFFSET 0.1807663869 1.5087829790000005 0
          CHANNELS 3 Yrotation Xrotation Zrotation
          JOINT leftUpperArm
          {
            OFFSET 0.5985063006419806 0 0
            CHANNELS 3 Yrotation Xrotation Zrotation
            JOINT leftLowerArm
            {
              OFFSET 2.2993332369501065 0 0
              CHANNELS 3 Yrotation Xrotation Zrotation
              JOINT leftHand
              {
                OFFSET 2.395047042602395 0 0
                CHANNELS 3 Yrotation Xrotation Zrotation
                JOINT leftIndexProximal
                {
                  OFFSET 0.5766295810000004 0.04556643899499946 0.17265095988184
                  CHANNELS 3 Yrotation Xrotation Zrotation
                  JOINT leftIndexIntermediate
                  {
                    OFFSET 0.2957229000000008 -0.019352197700001517 -0.007932640616999987
                    CHANNELS 3 Yrotation Xrotation Zrotation
                    JOINT leftIndexDistal
                    {
                      OFFSET 0.19008243099999922 -0.012484908149998475 -0.002786250786000012
                      CHANNELS 3 Yrotation Xrotation Zrotation
                      End Site
                      {
                        OFFSET 0.19008243099999922 -0.012484908149998475 -0.002786250786000012
                      }
                    }
                  }
                }
                JOINT leftMiddleProximal
                {
                  OFFSET 0.5834975091000001 0.0524350405149987 0.02204081888183999
                  CHANNELS 3 Yrotation Xrotation Zrotation
                  JOINT leftMiddleIntermediate
                  {
                    OFFSET 0.33880573540000003 -0.019871473270000717 -0.00000971183179999946
                    CHANNELS 3 Yrotation Xrotation Zrotation
                    JOINT leftMiddleDistal
                    {
                      OFFSET 0.20676022730000088 -0.012221336379999448 0.0001471936708000235
                      CHANNELS 3 Yrotation Xrotation Zrotation
                      End Site
                      {
                        OFFSET 0.20676022730000088 -0.012221336379999448 0.0001471936708000235
                      }
                    }
                  }
                }
                JOINT leftLittleProximal
                {
                  OFFSET 0.5344154683999995 -0.012880921405001189 -0.24414037221816004
                  CHANNELS 3 Yrotation Xrotation Zrotation
                  JOINT leftLittleIntermediate
                  {
                    OFFSET 0.21758961730000093 -0.011650919939999227 0.011893592810000034
                    CHANNELS 3 Yrotation Xrotation Zrotation
                    JOINT leftLittleDistal
                    {
                      OFFSET 0.1475273964999999 -0.008152365682999818 0.006001092492999946
                      CHANNELS 3 Yrotation Xrotation Zrotation
                      End Site
                      {
                        OFFSET 0.1475273964999999 -0.008152365682999818 0.006001092492999946
                      }
                    }
                  }
                }
                JOINT leftRingProximal
                {
                  OFFSET 0.5799399463000003 0.026911854694997794 -0.12150566991816003
                  CHANNELS 3 Yrotation Xrotation Zrotation
                  JOINT leftRingIntermediate
                  {
                    OFFSET 0.26167887460000006 -0.013480186499999602 0.010996293000000053
                    CHANNELS 3 Yrotation Xrotation Zrotation
                    JOINT leftRingDistal
                    {
                      OFFSET 0.17667108799999987 -0.008990287899999228 0.0055541023999999065
                      CHANNELS 3 Yrotation Xrotation Zrotation
                      End Site
                      {
                        OFFSET 0.17667108799999987 -0.008990287899999228 0.0055541023999999065
                      }
                    }
                  }
                }
                JOINT leftThumbProximal
                {
                  OFFSET 0.11018806699999972 -0.09448718900500053 0.17047963138184
                  CHANNELS 3 Yrotation Xrotation Zrotation
                  JOINT leftThumbIntermediate
                  {
                    OFFSET 0.31062601459999983 -0.08126270900000132 0.15443142000000007
                    CHANNELS 3 Yrotation Xrotation Zrotation
                    JOINT leftThumbDistal
                    {
                      OFFSET 0.21627175790000086 -0.08833193599999878 0.018771167799999988
                      CHANNELS 3 Yrotation Xrotation Zrotation
                      End Site
                      {
                        OFFSET 0.21627175790000086 -0.08833193599999878 0.018771167799999988
                      }
                    }
                  }
                }
              }
            }
          }
        }
        JOINT neck
        {
          OFFSET 0 1.5463305265074576 0
          CHANNELS 3 Yrotation Xrotation Zrotation
          JOINT head
          {
            OFFSET 0 0.8456443600000344 0
            CHANNELS 3 Yrotation Xrotation Zrotation
            JOINT leftEye
            {
              OFFSET 0.30408573140000006 0.5104519199999995 0.1276382305
              CHANNELS 3 Yrotation Xrotation Zrotation
              End Site
              {
                OFFSET 0.30408573140000006 0.5104519199999995 0.1276382305
              }
            }
            JOINT rightEye
            {
              OFFSET -0.30409491089999996 0.5104519199999995 0.1276379445
              CHANNELS 3 Yrotation Xrotation Zrotation
              End Site
              {
                OFFSET -0.30409491089999996 0.5104519199999995 0.1276379445
              }
            }
            JOINT jaw
            {
              OFFSET -3.155239131000001e-7 -0.11984121820000082 0.60178107
              CHANNELS 3 Yrotation Xrotation Zrotation
              End Site
              {
                OFFSET -3.155239131000001e-7 -0.11984121820000082 0.60178107
              }
            }
          }
        }
        JOINT rightShoulder
        {
          OFFSET -0.1807303465 1.5087829790000005 0
          CHANNELS 3 Yrotation Xrotation Zrotation
          JOINT rightUpperArm
          {
            OFFSET -0.5985063796536958 0 0
            CHANNELS 3 Yrotation Xrotation Zrotation
            JOINT rightLowerArm
            {
              OFFSET -2.2993322059002854 0 0
              CHANNELS 3 Yrotation Xrotation Zrotation
              JOINT rightHand
              {
                OFFSET -2.395045314457259 0 0
                CHANNELS 3 Yrotation Xrotation Zrotation
                JOINT rightIndexProximal
                {
                  OFFSET -0.5764487688300002 0.0441371204405987 0.17361932004999997
                  CHANNELS 3 Yrotation Xrotation Zrotation
                  JOINT rightIndexIntermediate
                  {
                    OFFSET -0.29573011380000047 -0.01934826376999843 -0.007698921482999974
                    CHANNELS 3 Yrotation Xrotation Zrotation
                    JOINT rightIndexDistal
                    {
                      OFFSET -0.19008373999999884 -0.012503266380000655 -0.0026365778999999897
                      CHANNELS 3 Yrotation Xrotation Zrotation
                      End Site
                      {
                        OFFSET -0.19008373999999884 -0.012503266380000655 -0.0026365778999999897
                      }
                    }
                  }
                }
                JOINT rightMiddleProximal
                {
                  OFFSET -0.5834852037300005 0.05211639405060153 0.02307162440000001
                  CHANNELS 3 Yrotation Xrotation Zrotation
                  JOINT rightMiddleIntermediate
                  {
                    OFFSET -0.33880114510000003 -0.019952774050000954 0.0002455003561999819
                    CHANNELS 3 Yrotation Xrotation Zrotation
                    JOINT rightMiddleDistal
                    {
                      OFFSET -0.20675694929999955 -0.012273788999999091 0.00030209124000002766
                      CHANNELS 3 Yrotation Xrotation Zrotation
                      End Site
                      {
                        OFFSET -0.20675694929999955 -0.012273788999999091 0.00030209124000002766
                      }
                    }
                  }
                }
                JOINT rightLittleProximal
                {
                  OFFSET -0.5346811737299992 -0.011214256288399227 -0.24363941305000003
                  CHANNELS 3 Yrotation Xrotation Zrotation
                  JOINT rightLittleIntermediate
                  {
                    OFFSET -0.21757715980000092 -0.011771559690000988 0.01201554387
                    CHANNELS 3 Yrotation Xrotation Zrotation
                    JOINT rightLittleDistal
                    {
                      OFFSET -0.1475201849000004 -0.00822055339600003 0.006082065407000015
                      CHANNELS 3 Yrotation Xrotation Zrotation
                      End Site
                      {
                        OFFSET -0.1475201849000004 -0.00822055339600003 0.006082065407000015
                      }
                    }
                  }
                }
                JOINT rightRingProximal
                {
                  OFFSET -0.5800810755299999 0.027657985680600072 -0.12066365025000003
                  CHANNELS 3 Yrotation Xrotation Zrotation
                  JOINT rightRingIntermediate
                  {
                    OFFSET -0.26166445029999974 -0.013623118409999302 0.011164098990000045
                    CHANNELS 3 Yrotation Xrotation Zrotation
                    JOINT rightRingDistal
                    {
                      OFFSET -0.17666387530000027 -0.009072900100000503 0.005668185599999959
                      CHANNELS 3 Yrotation Xrotation Zrotation
                      End Site
                      {
                        OFFSET -0.17666387530000027 -0.009072900100000503 0.005668185599999959
                      }
                    }
                  }
                }
                JOINT rightThumbProximal
                {
                  OFFSET -0.10997596379000074 -0.09577489355940072 0.16989765924999997
                  CHANNELS 3 Yrotation Xrotation Zrotation
                  JOINT rightThumbIntermediate
                  {
                    OFFSET -0.31036620999999986 -0.08229339117999834 0.15440884469999996
                    CHANNELS 3 Yrotation Xrotation Zrotation
                    JOINT rightThumbDistal
                    {
                      OFFSET -0.21631306399999906 -0.08825326400000111 0.018656797720000014
                      CHANNELS 3 Yrotation Xrotation Zrotation
                      End Site
                      {
                        OFFSET -0.21631306399999906 -0.08825326400000111 0.018656797720000014
                      }
                    }
                  }
                }
              }
            }
          }
        }
      }
    }
  }
}
MOTION
Frames: 7
Frame Time: 0.03333333333333333
0 -7.033921315365206 0 -90.40133499766667 89.73312138885133 89.3438999499025 176.93638451309548 -54.26620628762806 -160.65338647870988 -123.93197036775967 27.615977696067155 -138.35116567142111 14.390981617455566 35.584608960684854 17.34417215412994 0 0 0 -176.94642446889105 -54.27374448634507 160.63742113145034 123.96867059758911 27.60161987030473 138.3758279622013 -14.000379646738248 43.23408858363231 -15.818970631225124 0 0 0 -1.2882204571756637 -14.473833456834878 -1.8471764990687438 1.1755854311978704 -25.49704058683778 -6.32047248840315 0 0 0 16.881264393418345 -0.008935559166067834 -37.553811182005774 -23.858902494858373 20.249999534530076 -35.37040677931057 -104.66978160246781 26.71197183768518 5.228867193714988 -8.544973832467322 -15.029649459272633 43.30153261776995 0 0 0 0 0 0 0 0 0 0 0 0 0 0 0 0 0 0 0 0 0 0 0 0 0 0 0 0 0 0 0 0 0 0 0 0 0 0 0 0 0 0 0 0 0 1.195023203289252 20.56311454289811 -17.860392676512987 -0.3651337261847659 -11.11864796886377 -8.321932390540619 0 0 0 0 0 0 0 0 0 21.0990832472964 -1.4454189906562793 17.571829205108536 7.432583653208785 -23.840145217669143 53.52275983985045 80.21198234970983 17.085684956517966 -2.1721704916191262 26.17523080214526 -28.988988588566016 -53.494945706054146 0 0 0 0 0 0 0 0 0 0 0 0 0 0 0 0 0 0 0 0 0 0 0 0 0 0 0 0 0 0 0 0 0 0 0 0 0 0 0 0 0 0 0 0 0
0 -7.033921315365206 0 -90.40133499766667 89.73312138885133 89.3438999499025 176.93638451309548 -54.26620628762806 -160.65338647870988 -123.93197036775967 27.615977696067155 -138.35116567142111 14.390981617455566 35.584608960684854 17.34417215412994 0 0 0 -176.94642446889105 -54.27374448634507 160.63742251090804 123.96867059758911 27.60161987030473 138.3758279622013 -14.000379646738248 43.23408858363231 -15.818970631225124 0 0 0 -1.2882204571756637 -14.473833456834878 -1.8471764990687438 1.1755854311978704 -25.49704058683778 -6.32047248840315 0 0 0 16.881264393418345 -0.008934766257134769 -37.553811182005774 -23.992428077735322 20.161192297893347 -35.2644677405244 -104.380615716087 26.935805894628604 5.2450744173170145 -8.570352639379292 -15.296729746307355 43.02767967540719 0 0 0 0 0 0 0 0 0 0 0 0 0 0 0 0 0 0 0 0 0 0 0 0 0 0 0 0 0 0 0 0 0 0 0 0 0 0 0 0 0 0 0 0 0 1.207554533074618 20.436679066690438 -17.73635280158808 -0.3381131774327906 -11.56496760058799 -8.472706722045814 0 0 0 0 0 0 0 0 0 21.0990832472964 -1.4454189906562793 17.571829205108536 7.813498959971801 -23.796849417885877 53.09790203657776 79.72088665502693 16.979080585208777 -2.2304176757754317 26.076332847479197 -29.076379158198296 -53.29118050816333 0 0 0 0 0 0 0 0 0 0 0 0 0 0 0 0 0 0 0 0 0 0 0 0 0 0 0 0 0 0 0 0 0 0 0 0 0 0 0 0 0 0 0 0 0
0 -7.033921315365206 0 -90.40133499766667 89.73312138885133 89.3438999499025 176.93638451309548 -54.26620628762806 -160.65338647870988 -123.93197036775967 27.615977696067155 -138.35116567142111 14.390981617455566 35.584608960684854 17.34417215412994 0 0 0 -176.94642446889105 -54.27374448634507 160.63742251090804 123.96867059758911 27.60161987030473 138.3758279622013 -14.000379646738248 43.23408858363231 -15.818970631225124 0 0 0 -1.2882204571756637 -14.473833456834878 -1.8471764990687438 1.1755854311978704 -25.49704058683778 -6.32047248840315 0 0 0 16.881264393418345 -0.008934766257134769 -37.553811182005774 -24.059254670805018 20.116854920411082 -35.211416351688406 -104.23561883359372 27.04782814186462 5.2536758122946114 -8.582576361819608 -15.430500041141963 42.89047867821222 0 0 0 0 0 0 0 0 0 0 0 0 0 0 0 0 0 0 0 0 0 0 0 0 0 0 0 0 0 0 0 0 0 0 0 0 0 0 0 0 0 0 0 0 0 1.2137076767327155 20.373436585698904 -17.674368204416343 -0.3241481822810916 -11.787923940749662 -8.548204687535906 0 0 0 0 0 0 0 0 0 21.0990832472964 -1.4454189906562793 17.571829205108536 8.004123330194547 -23.77419001843409 52.88525812050127 79.47492353850276 16.925478959369066 -2.259235635056146 26.026700800338393 -29.119973232336577 -53.18913297262551 0 0 0 0 0 0 0 0 0 0 0 0 0 0 0 0 0 0 0 0 0 0 0 0 0 0 0 0 0 0 0 0 0 0 0 0 0 0 0 0 0 0 0 0 0
0 -7.033921315365206 0 -90.40133499766667 89.73312138885133 89.3438999499025 176.93638451309548 -54.26620628762806 -160.65338647870988 -123.93197036775967 27.615977696067155 -138.35116567142111 14.390981617455566 35.584608960684854 17.34417215412994 0 0 0 -176.94642446889105 -54.27374448634507 160.63742251090804 123.96867059758911 27.60161987030473 138.3758279622013 -14.000379646738248 43.23408858363231 -15.818970631225124 0 0 0 -1.2882204571756637 -14.473833456834878 -1.8471764990687438 1.1755854311978704 -25.49704058683778 -6.32047248840315 0 0 0 16.881264393418345 -0.008934766257134769 -37.553811182005774 -24.12610585074716 20.07257555572804 -35.15832213509796 -104.09045895132341 27.159831825304906 5.262604284730256 -8.594476252402123 -15.564298103280981 42.75321979425527 0 0 0 0 0 0 0 0 0 0 0 0 0 0 0 0 0 0 0 0 0 0 0 0 0 0 0 0 0 0 0 0 0 0 0 0 0 0 0 0 0 0 0 0 0 1.2197852991529352 20.310187244558136 -17.612413641092896 -0.30987141342310515 -12.010862471151668 -8.623819795560014 0 0 0 0 0 0 0 0 0 21.0990832472964 -1.4454189906562793 17.571829205108536 8.194620581290192 -23.750881621951617 52.6727393814066 79.22905850246318 16.87175697820094 -2.287804448435635 25.976959930261692 -29.163489974875947 -53.086996024397756 0 0 0 0 0 0 0 0 0 0 0 0 0 0 0 0 0 0 0 0 0 0 0 0 0 0 0 0 0 0 0 0 0 0 0 0 0 0 0 0 0 0 0 0 0
0 -7.033921315365206 0 -90.40133499766667 89.73312138885133 89.3438999499025 176.93638451309548 -54.26620628762806 -160.65338647870988 -123.93197036775967 27.615977696067155 -138.35116567142111 14.390981617455566 35.584608960684854 17.34417215412994 0 0 0 -176.94642446889105 -54.27374448634507 160.63742251090804 123.96867059758911 27.60161987030473 138.3758279622013 -14.000379646738248 43.23408858363231 -15.818970631225124 0 0 0 -1.2882204571756637 -14.473833456834878 -1.8471764990687438 1.1755854311978704 -25.49704058683778 -6.32047248840315 0 0 0 16.881264393418345 -0.008934766257134769 -37.553811182005774 -24.259939211543816 19.984157857505384 -35.05197001859978 -103.79929985524407 27.38404460240568 5.281470678649446 -8.617322603753063 -15.832337419657815 42.478134091729586 0 0 0 0 0 0 0 0 0 0 0 0 0 0 0 0 0 0 0 0 0 0 0 0 0 0 0 0 0 0 0 0 0 0 0 0 0 0 0 0 0 0 0 0 0 1.2317175852617663 20.18365133402109 -17.488585292826293 -0.28040224647013146 -12.456309489381402 -8.77528692870535 0 0 0 0 0 0 0 0 0 21.0990832472964 -1.4454189906562793 17.571829205108536 8.575902014110033 -23.702246496409135 52.247314352405176 78.73653216475519 16.763727471441698 -2.3443192848976615 25.877108868256506 -29.250326399796492 -52.88239512352065 0 0 0 0 0 0 0 0 0 0 0 0 0 0 0 0 0 0 0 0 0 0 0 0 0 0 0 0 0 0 0 0 0 0 0 0 0 0 0 0 0 0 0 0 0
0 -7.033921315365206 0 -90.40133499766667 89.73312138885133 89.3438999499025 176.93638451309548 -54.26620628762806 -160.65338647870988 -123.93197036775967 27.615977696067155 -138.35116567142111 14.390981617455566 35.584608960684854 17.34417215412994 0 0 0 -176.94642446889105 -54.27374448634507 160.63742251090804 123.96867059758911 27.60161987030473 138.3758279622013 -14.000379646738248 43.23408858363231 -15.818970631225124 0 0 0 -1.2882204571756637 -14.473833456834878 -1.8471764990687438 1.1755854311978704 -25.49704058683778 -6.32047248840315 0 0 0 16.881264393418345 -0.008934766257134769 -37.553811182005774 -24.32692003728581 19.940019392064865 -34.998711832179325 -103.65329694757023 27.496245346444184 5.291410891928315 -8.628274033901954 -15.96657717373875 42.340319893920544 0 0 0 0 0 0 0 0 0 0 0 0 0 0 0 0 0 0 0 0 0 0 0 0 0 0 0 0 0 0 0 0 0 0 0 0 0 0 0 0 0 0 0 0 0 1.2375722020215227 20.120359185177627 -17.426701110009535 -0.26520950914792674 -12.678813492301348 -8.851141394706689 0 0 0 0 0 0 0 0 0 21.0990832472964 -1.4454189906562793 17.571829205108536 8.766674450398687 -23.676909324349456 52.03442216620478 78.48986105924196 16.70941840057275 -2.3722624552215152 25.827007064393083 -29.29364009122411 -52.77993341634328 0 0 0 0 0 0 0 0 0 0 0 0 0 0 0 0 0 0 0 0 0 0 0 0 0 0 0 0 0 0 0 0 0 0 0 0 0 0 0 0 0 0 0 0 0
0 -7.033921315365206 0 -90.40133499766667 89.73312138885133 89.3438999499025 176.93638451309548 -54.26620628762806 -160.65338647870988 -123.93197036775967 27.615977696067155 -138.35116567142111 14.390981617455566 35.584608960684854 17.34417215412994 0 0 0 -176.94642446889105 -54.27374448634507 160.63742251090804 123.96867059758911 27.60161987030473 138.3758279622013 -14.000379646738248 43.23408858363231 -15.818970631225124 0 0 0 -1.2882204571756637 -14.473833456834878 -1.8471764990687438 1.1755854311978704 -25.49704058683778 -6.32047248840315 0 0 0 16.881264393418345 -0.008934766257134769 -37.553811182005774 -24.39392496078188 19.89593865721572 -34.94541526201878 -103.50712310201375 27.60842375367901 5.301683277888713 -8.638897094001198 -16.100842993883635 42.20243631957243 0 0 0 0 0 0 0 0 0 0 0 0 0 0 0 0 0 0 0 0 0 0 0 0 0 0 0 0 0 0 0 0 0 0 0 0 0 0 0 0 0 0 0 0 0 1.243351560490296 20.05706355511057 -17.36485024953014 -0.2497011576584071 -12.901298343337258 -8.927124017410085 0 0 0 0 0 0 0 0 0 21.0990832472964 -1.4454189906562793 17.571829205108536 8.957303572504413 -23.650924620317266 51.821661808410525 78.24328716793407 16.654992887022367 -2.3999533069081025 25.776792314363824 -29.33687618184733 -52.67738300729965 0 0 0 0 0 0 0 0 0 0 0 0 0 0 0 0 0 0 0 0 0 0 0 0 0 0 0 0 0 0 0 0 0 0 0 0 0 0 0 0 0 0 0 0 0
